# xmcd
#
# Track frame offsets: 
#        150
#        29742
#        60952
#        78345
#        98132
#        111582
#        137125
#        159067
#        171022
#        187835
#        202202
#        214350
#        248367
#        263245
#        279917
#        292160
#        310995
#        325637
#
# Disc length: 4444 seconds
#
# Revision: 1
# Processed by: cddbd v1.5.2PL0 Copyright (c) Steve Scherf et al.
# Submitted via: ExactAudioCopy v0.90b4
#
DISCID=02115a12
DTITLE=Various Artist - Guantanamera - 18 versions originales
DYEAR=1900
DGENRE=Salsa
TTITLE0=Original de Manzanillo - Guantanamera
TTITLE1=Miriam Bayard y habana son - Guantanamera
TTITLE2=Orchestra Aragon - Guantanamera
TTITLE3=Coralia Fernandez y Ramon Veloz - Guantanamera
TTITLE4=Joseito Fernandez - Guantanamera
TTITLE5=Rumbavana - Guantanamer
TTITLE6=Grupo Raison - Guantanamera
TTITLE7=Tipica Juventud - Guantanamera
TTITLE8=Beny More y Joseito Fernandez - Guantanamera
TTITLE9=Abelardo barroso y la sensacion - Guantanamera
TTITLE10=Carmelina Barberi - Guantanamera
TTITLE11=Carlos Embale y Teresa Garcia - Guantanamera
TTITLE12=Coro y los Pioneros - Guantanamera
TTITLE13=Grupo Edad de l'Oro - Guantanamera
TTITLE14=Hermanos Bermudes - Guantanamera
TTITLE15=Beneticio y Conjunto Caney - Guantanamera
TTITLE16=Orquesta Cubana de Musica Moderna - Guantanamera
TTITLE17=Coro Nacional - Guantanamera
EXTD=
EXTT0=
EXTT1=
EXTT2=
EXTT3=
EXTT4=
EXTT5=
EXTT6=
EXTT7=
EXTT8=
EXTT9=
EXTT10=
EXTT11=
EXTT12=
EXTT13=
EXTT14=
EXTT15=
EXTT16=
EXTT17=
PLAYORDER=
